<svg width="349" height="333" viewBox="0 0 349 333" fill="none" xmlns="http://www.w3.org/2000/svg">
<g clip-path="url(#clip0_89_34)">
<path d="M0 38.6818C0 27.4694 3.93029 18.2194 11.7905 10.9318C19.6508 3.64382 29.8695 0 42.4459 0C54.7981 0 64.7917 3.58765 72.4276 10.7636C80.2879 18.1636 84.2181 27.8058 84.2181 39.6908C84.2181 50.4545 80.4004 59.4239 72.7645 66.5999C64.9042 73.9999 54.5734 77.6999 41.7722 77.6999H41.4353C29.0832 77.6999 19.0896 73.9999 11.4537 66.5999C3.81778 59.1999 0 49.8937 0 38.6818ZM4.37934 332.999V108.309H79.1651V332.999H4.37934ZM120.6 332.999H195.386V207.536C195.386 199.687 196.285 193.633 198.081 189.372C201.225 181.748 205.998 175.301 212.398 170.032C218.799 164.762 226.827 162.127 236.485 162.127C261.638 162.127 274.214 179.057 274.214 212.918V332.999H349V204.172C349 170.984 341.14 145.813 325.419 128.659C309.698 111.504 288.924 102.927 263.097 102.927C234.126 102.927 211.556 115.373 195.386 140.263V140.936H195.049L195.386 140.263V108.309H120.6C121.049 115.485 121.274 137.797 121.274 175.245C121.274 212.693 121.049 265.278 120.6 332.999Z" fill="white"/>
</g>
<defs>
<clipPath id="clip0_89_34">
<rect width="349" height="333" fill="white"/>
</clipPath>
</defs>
</svg>
