<svg width="468" height="571" viewBox="0 0 468 571" fill="none" xmlns="http://www.w3.org/2000/svg">
<g clip-path="url(#clip0_84_18)">
<path d="M468.28 337.15C468.28 472.11 353.52 580.81 216.45 570.68C100.73 562.13 7.74011 467.96 0.470113 352.15C-4.82989 267.74 34.9301 191.98 97.9901 146.79C97.9901 183.63 89.6101 220.13 72.4901 252.75C59.2401 278 51.7301 306.7 51.7301 337.14C51.7301 442.23 140.96 526.78 247.55 519.12C335.98 512.76 408 442.06 415.86 353.75C419.06 317.82 411.75 283.8 396.69 254.38C380.09 221.96 370.35 186.47 370.35 150.05V146.84C429.65 189.29 468.29 258.82 468.29 337.15H468.28Z" fill="white"/>
<path d="M216.281 332.2L199.101 347.06C184.061 360.08 179.721 381.61 188.551 399.44L234.141 491.51L279.731 399.44C288.561 381.62 284.221 360.08 269.181 347.06L252.001 332.2C241.741 323.32 226.521 323.32 216.271 332.2H216.281Z" fill="white"/>
<path d="M283.05 47.7L234.15 0L185.25 47.7C153.85 78.33 136.14 120.34 136.14 164.2V269.58C136.14 286.88 150.16 300.9 167.46 300.9H300.82C318.12 300.9 332.14 286.88 332.14 269.58V164.2C332.14 120.34 314.43 78.33 283.03 47.7H283.05Z" fill="white"/>
</g>
<defs>
<clipPath id="clip0_84_18">
<rect width="468" height="571" fill="white"/>
</clipPath>
</defs>
</svg>
