<?xml version="1.0" encoding="UTF-8"?>
<svg id="Layer_2" data-name="Layer 2" xmlns="http://www.w3.org/2000/svg" viewBox="0 0 2229.33 571.33">
  <defs>
    <style>
      .cls-1 {
        fill: #ffb600;
      }

      .cls-2 {
        fill: #fff;
      }

      .cls-3 {
        fill: #d9277c;
      }
    </style>
  </defs>
  <g id="Layer_1-2" data-name="Layer 1">
    <g>
      <path class="cls-2" d="M629.9,194.66c-10.22,0-18.39-3.06-24.52-9.19s-9.19-14.16-9.19-24.08,3.21-17.58,9.63-23.86c6.42-6.27,14.45-9.41,24.08-9.41s17.36,3.06,24.08,9.19c6.71,6.13,10.07,14.16,10.07,24.08s-3.22,17.95-9.63,24.08c-6.42,6.13-14.6,9.19-24.52,9.19ZM603.19,452.12v-230.75h53.42v230.75h-53.42Z"/>
      <path class="cls-2" d="M815.54,557.64c-16.93,0-32.77-2.7-47.51-8.1-14.74-5.4-27.15-13.87-37.22-25.39-10.07-11.53-16.86-26.35-20.36-44.44h54.73c1.75,7.01,5.26,12.7,10.51,17.08,5.25,4.38,11.45,7.51,18.61,9.41,7.15,1.9,14.52,2.85,22.11,2.85,14.3,0,25.61-2.92,33.93-8.76,8.32-5.84,14.23-13.79,17.73-23.86,3.5-10.07,5.25-21.09,5.25-33.06v-21.89c-5.25,8.47-11.9,15.18-19.92,20.14-8.03,4.97-16.49,8.39-25.39,10.29-8.91,1.9-17.73,2.85-26.49,2.85-23.94,0-43.42-5.26-58.45-15.76-15.04-10.51-26.05-24.59-33.06-42.25-7.01-17.66-10.51-37.14-10.51-58.45s3.87-42.4,11.6-60.64c7.73-18.24,19.41-32.76,35.03-43.57,15.61-10.8,35.25-16.2,58.89-16.2,13.72,0,26.63,2.41,38.75,7.23,12.11,4.82,22.25,12.04,30.43,21.67l3.5-25.39h49.48v210.6c0,25.98-3.72,48.38-11.16,67.21-7.44,18.83-19.34,33.28-35.68,43.35-16.35,10.07-37.95,15.11-64.8,15.11ZM812.48,407.46c13.72,0,25.1-3.28,34.15-9.85,9.04-6.57,15.91-15.32,20.58-26.27,4.67-10.95,7.01-22.84,7.01-35.68s-2.26-24.96-6.79-35.47c-4.53-10.51-11.24-18.83-20.14-24.96-8.91-6.13-20.36-9.19-34.37-9.19-14.89,0-26.71,3.36-35.47,10.07-8.76,6.72-15.1,15.54-19.05,26.49s-5.91,22.55-5.91,34.81,2.04,24.59,6.13,35.25c4.08,10.66,10.51,19.12,19.27,25.4,8.76,6.28,20.29,9.41,34.59,9.41Z"/>
      <path class="cls-2" d="M978.86,452.12v-230.75h49.91l3.06,29.34c6.13-8.17,13.28-14.59,21.46-19.27,8.17-4.67,16.78-8.1,25.83-10.29,9.05-2.19,17.52-3.28,25.4-3.28,21.89,0,39.19,4.82,51.88,14.45,12.7,9.63,21.67,22.48,26.93,38.53,5.25,16.06,7.88,34.01,7.88,53.85v127.41h-53.42v-118.66c0-8.46-.59-16.71-1.75-24.74-1.17-8.03-3.43-15.25-6.79-21.67-3.36-6.42-8.1-11.53-14.23-15.32-6.13-3.79-14.31-5.69-24.52-5.69-12.55,0-23.21,3.36-31.96,10.07-8.76,6.72-15.32,15.69-19.7,26.93-4.38,11.24-6.57,24.01-6.57,38.31v110.78h-53.42Z"/>
      <path class="cls-2" d="M1268.27,194.66c-10.22,0-18.39-3.06-24.52-9.19s-9.19-14.16-9.19-24.08,3.21-17.58,9.63-23.86c6.41-6.27,14.45-9.41,24.08-9.41s17.36,3.06,24.08,9.19c6.71,6.13,10.07,14.16,10.07,24.08s-3.22,17.95-9.63,24.08c-6.42,6.13-14.6,9.19-24.52,9.19ZM1241.56,452.12v-230.75h53.42v230.75h-53.42Z"/>
      <path class="cls-2" d="M1438.59,454.75c-25.4,0-43.94-7.01-55.61-21.02-11.68-14.01-17.52-33.42-17.52-58.23v-106.83h-35.47v-47.29h35.47v-64.8h53.42v64.8h70.06v47.29h-70.06v96.76c0,7.59.87,14.45,2.63,20.58s4.96,10.95,9.63,14.45c4.67,3.5,11.09,5.4,19.26,5.69,7.01,0,12.99-1.16,17.95-3.5,4.96-2.33,9.04-4.96,12.26-7.88l17.95,40.72c-5.55,4.67-11.75,8.47-18.61,11.39-6.86,2.92-13.79,4.97-20.8,6.13-7.01,1.16-13.87,1.75-20.58,1.75Z"/>
      <path class="cls-2" d="M1630.81,455.18c-23.94,0-44.3-4.96-61.08-14.89-16.79-9.92-29.49-23.71-38.1-41.38-8.61-17.66-12.92-38.16-12.92-61.52s4.45-44,13.35-61.96c8.9-17.95,21.74-32.03,38.53-42.25,16.78-10.21,37-15.32,60.64-15.32,17.52,0,32.84,3.14,45.98,9.41,13.13,6.28,24.15,14.82,33.06,25.61,8.9,10.8,15.54,23.06,19.92,36.78,4.38,13.72,6.41,28.17,6.13,43.35-.3,3.5-.59,6.94-.88,10.29-.29,3.36-.73,6.94-1.31,10.73h-162c.87,10.22,3.57,19.56,8.1,28.02,4.52,8.47,10.95,15.18,19.26,20.14,8.32,4.97,18.75,7.44,31.31,7.44,7.29,0,14.3-.94,21.01-2.85,6.71-1.89,12.62-4.74,17.73-8.54,5.11-3.79,8.54-8.6,10.29-14.45h53.42c-3.8,16.64-10.8,30.21-21.02,40.72-10.22,10.51-22.4,18.24-36.56,23.21-14.16,4.96-29.11,7.44-44.88,7.44ZM1573.01,314.2h111.21c0-9.63-2.19-18.39-6.56-26.27-4.38-7.88-10.59-14.08-18.61-18.61-8.03-4.52-17.73-6.79-29.12-6.79-12.26,0-22.48,2.48-30.65,7.44-8.17,4.97-14.45,11.38-18.83,19.27s-6.86,16.2-7.44,24.96Z"/>
      <path class="cls-2" d="M1812.51,457.37c-9.35,0-17.3-3.06-23.87-9.19-6.56-6.13-9.85-14.45-9.85-24.96s3.35-18.9,10.07-25.18c6.71-6.27,14.73-9.41,24.08-9.41s17.22,3.14,23.64,9.41c6.42,6.28,9.63,14.67,9.63,25.18s-3.22,18.83-9.63,24.96c-6.42,6.13-14.45,9.19-24.08,9.19Z"/>
      <path class="cls-2" d="M1991.14,455.18c-17.23,0-32.26-3-45.1-8.98-12.85-5.98-23.42-14.3-31.74-24.96-8.32-10.65-14.6-23.13-18.83-37.44-4.23-14.3-6.35-29.62-6.35-45.97,0-23.06,4.01-43.63,12.04-61.74,8.02-18.1,20.14-32.33,36.34-42.69,16.2-10.36,36.27-15.54,60.21-15.54,13.14,0,25.54,2.26,37.22,6.79,11.67,4.53,21.45,11.32,29.34,20.36l1.75-23.64h50.79v230.75h-51.67l-1.31-25.83c-8.76,9.93-19.56,17.23-32.4,21.89-12.85,4.67-26.27,7.01-40.28,7.01ZM2002.53,407.02c13.42,0,24.66-3.21,33.71-9.63,9.04-6.42,15.91-15.03,20.58-25.83,4.67-10.8,7-22.47,7-35.03,0-13.42-2.34-25.39-7-35.9-4.67-10.51-11.54-18.9-20.58-25.18-9.05-6.27-20.43-9.41-34.15-9.41s-25.83,3.28-34.59,9.85c-8.76,6.57-15.18,15.18-19.26,25.83-4.09,10.66-6.13,22.26-6.13,34.81s2.04,24.67,6.13,35.47c4.09,10.8,10.65,19.34,19.7,25.61,9.04,6.28,20.58,9.41,34.59,9.41Z"/>
      <path class="cls-2" d="M2195.18,194.66c-10.22,0-18.39-3.06-24.52-9.19s-9.19-14.16-9.19-24.08,3.21-17.58,9.63-23.86c6.41-6.27,14.45-9.41,24.08-9.41s17.36,3.06,24.08,9.19c6.71,6.13,10.07,14.16,10.07,24.08s-3.22,17.95-9.63,24.08c-6.42,6.13-14.6,9.19-24.52,9.19ZM2168.47,452.12v-230.75h53.42v230.75h-53.42Z"/>
      <g>
        <path class="cls-3" d="M468.28,337.15c0,134.96-114.76,243.66-251.83,233.53C100.73,562.13,7.74,467.96.47,352.15c-5.3-84.41,34.46-160.17,97.52-205.36h0c0,36.84-8.38,73.34-25.5,105.96-13.25,25.25-20.76,53.95-20.76,84.39,0,105.09,89.23,189.64,195.82,181.98,88.43-6.36,160.45-77.06,168.31-165.37,3.2-35.93-4.11-69.95-19.17-99.37-16.6-32.42-26.34-67.91-26.34-104.33v-3.21c59.3,42.45,97.94,111.98,97.94,190.31Z"/>
        <path class="cls-1" d="M216.28,332.2l-17.18,14.86c-15.04,13.02-19.38,34.55-10.55,52.38l45.59,92.07,45.59-92.07c8.83-17.82,4.49-39.36-10.55-52.38l-17.18-14.86c-10.26-8.88-25.48-8.88-35.73,0Z"/>
        <path class="cls-3" d="M283.05,47.7L234.15,0l-48.9,47.7c-31.4,30.63-49.11,72.64-49.11,116.5v105.38c0,17.3,14.02,31.32,31.32,31.32h133.36c17.3,0,31.32-14.02,31.32-31.32v-105.38c0-43.86-17.71-85.87-49.11-116.5Z"/>
      </g>
    </g>
  </g>
</svg>